<?xml version="1.0" encoding="UTF-8" standalone="no"?>
<svg
   xmlns:dc="http://purl.org/dc/elements/1.1/"
   xmlns:cc="http://creativecommons.org/ns#"
   xmlns:rdf="http://www.w3.org/1999/02/22-rdf-syntax-ns#"
   xmlns:svg="http://www.w3.org/2000/svg"
   xmlns="http://www.w3.org/2000/svg"
   xmlns:sodipodi="http://sodipodi.sourceforge.net/DTD/sodipodi-0.dtd"
   xmlns:inkscape="http://www.inkscape.org/namespaces/inkscape"
   width="210mm"
   height="297mm"
   viewBox="0 0 210 297"
   version="1.1"
   id="svg8"
   inkscape:version="1.0.2-2 (e86c870879, 2021-01-15)"
   sodipodi:docname="logo.svg">
  <defs
     id="defs2" />
  <sodipodi:namedview
     id="base"
     pagecolor="#ffffff"
     bordercolor="#666666"
     borderopacity="1.0"
     inkscape:pageopacity="0.0"
     inkscape:pageshadow="2"
     inkscape:zoom="0.98994949"
     inkscape:cx="687.05536"
     inkscape:cy="504.67873"
     inkscape:document-units="mm"
     inkscape:current-layer="layer1"
     inkscape:document-rotation="0"
     showgrid="false"
     inkscape:window-width="3840"
     inkscape:window-height="1521"
     inkscape:window-x="-9"
     inkscape:window-y="-9"
     inkscape:window-maximized="1" />
  <metadata
     id="metadata5">
    <rdf:RDF>
      <cc:Work
         rdf:about="">
        <dc:format>image/svg+xml</dc:format>
        <dc:type
           rdf:resource="http://purl.org/dc/dcmitype/StillImage" />
        <dc:title></dc:title>
      </cc:Work>
    </rdf:RDF>
  </metadata>
  <g
     inkscape:label="Layer 1"
     inkscape:groupmode="layer"
     id="layer1">
    <path
       style="fill:#000000;stroke-width:0.264583"
       d="m 91.159696,182.79275 c 0,-0.20407 2.27278,-4.68511 5.05063,-9.95785 3.37998,-6.41567 4.950244,-9.64885 4.747134,-9.77437 -0.16692,-0.10317 -2.439714,-0.82848 -5.050634,-1.6118 -3.21354,-0.96413 -4.74713,-1.54387 -4.74713,-1.79455 0,-0.20367 0.8632,-1.37943 1.91823,-2.61281 1.05502,-1.23337 2.19168,-2.5835 2.52589,-3.00027 l 0.60767,-0.75778 -0.87225,-0.36607 c -2.73306,-1.14701 -6.90695,-4.194 -9.80194,-7.15555 -2.56792,-2.62696 -2.75233,-3.45048 -0.51862,-2.31599 3.28901,1.67047 12.13518,4.46063 15.610744,4.92377 l 1.39993,0.18655 -0.78216,-1.23333 c -1.539174,-2.42702 -1.684294,-4.96736 -0.42579,-7.45323 0.3514,-0.6941 0.60356,-1.29735 0.56035,-1.34056 -0.13439,-0.13438 -3.671924,1.13343 -5.333154,1.91135 -0.86989,0.40735 -2.18979,1.12574 -2.93311,1.59644 -2.34641,1.48581 -2.28577,0.99544 0.59503,-4.81156 l 2.60855,-5.25821 5.948344,-1.47228 5.94834,-1.47229 -3.4348,-0.46519 c -3.82003,-0.51737 -4.36084,-0.63327 -4.36084,-0.93455 0,-0.21383 2.42076,-2.83702 10.0318,-10.87068 2.4134,-2.5474 6.16469,-6.50951 8.33622,-8.80469 2.47032,-2.61099 4.04152,-4.07974 4.19747,-3.92379 0.15596,0.15596 -0.24411,1.17384 -1.06878,2.71928 -1.40227,2.62787 -2.89444,5.47055 -6.41159,12.2145 -1.20135,2.30353 -2.08064,4.28154 -1.95397,4.39557 0.12667,0.11403 1.89719,0.70875 3.93448,1.32159 5.58228,1.67922 5.7807,1.74817 5.87894,2.04288 0.0502,0.15045 -0.97468,1.53793 -2.27739,3.08331 -1.30271,1.54538 -2.44228,2.92905 -2.53238,3.07483 -0.0901,0.14579 0.64451,0.67473 1.63247,1.17544 0.98795,0.50071 2.68924,1.54042 3.78065,2.31047 2.26009,1.59463 6.87917,5.95401 6.87917,6.4924 0,0.496 -0.63771,0.44733 -1.79648,-0.13711 -3.06857,-1.54767 -9.35889,-3.59522 -13.54936,-4.41043 -3.03527,-0.59049 -3.02974,-0.59267 -2.12274,0.83752 1.52198,2.39991 1.62212,5.48627 0.25117,7.74063 -0.29601,0.48674 -0.49234,0.93082 -0.43631,0.98686 0.29902,0.29902 5.57054,-1.83905 7.89909,-3.20378 1.51291,-0.88669 2.36711,-1.15383 2.32812,-0.7281 -0.01,0.10914 -1.17086,2.52016 -2.57969,5.35782 l -2.56151,5.15937 -5.77394,1.44879 c -3.17566,0.79684 -5.66869,1.48388 -5.54006,1.52676 0.12864,0.0429 1.76449,0.28389 3.63524,0.53558 1.87074,0.25169 3.44544,0.58991 3.49933,0.75159 0.0862,0.25857 -3.85012,4.6141 -10.61727,11.74807 -1.17515,1.23885 -4.332584,4.60236 -7.016524,7.47448 -2.68393,2.87211 -4.97588,5.22203 -5.09323,5.22203 -0.11734,0 -0.21334,-0.16698 -0.21334,-0.37106 z m 6.88467,-7.43415 c 6.348934,-6.66184 15.366474,-16.33323 15.293294,-16.40219 -0.0469,-0.0442 -1.6926,-0.27865 -3.65713,-0.52102 -1.96453,-0.24237 -3.77416,-0.49873 -4.02139,-0.56968 -1.20888,-0.34691 0.26331,-0.92111 6.0453,-2.35789 l 6.23396,-1.54908 2.35451,-4.73449 c 1.29498,-2.60396 2.26469,-4.69347 2.15492,-4.64335 -0.10978,0.0501 -1.2988,0.65566 -2.64227,1.34564 -1.34348,0.68998 -3.30801,1.53817 -4.36563,1.88487 -3.65013,1.19655 -3.94861,1.14755 -2.74217,-0.45016 0.63267,-0.83785 1.48069,-3.25643 1.48069,-4.22298 0,-1.16251 -0.87046,-3.3605 -1.72726,-4.36148 -1.2218,-1.42739 -1.18526,-1.6937 0.2059,-1.5009 4.43871,0.61514 9.46466,2.01688 14.07558,3.9257 1.59331,0.65959 2.93765,1.15853 2.98743,1.10875 0.19003,-0.19003 -1.3634,-1.78979 -3.31913,-3.41814 -2.44239,-2.03355 -5.65334,-4.16027 -7.30982,-4.84155 -0.6827,-0.28077 -1.20434,-0.66853 -1.20146,-0.8931 0.003,-0.21828 1.1263,-1.70379 2.49666,-3.30112 1.37037,-1.59734 2.46303,-2.9328 2.42815,-2.96769 -0.0349,-0.0349 -2.26016,-0.73231 -4.94505,-1.54984 -2.6849,-0.81753 -4.97934,-1.58003 -5.09876,-1.69445 -0.17157,-0.16438 7.84764,-15.74949 9.53588,-18.53273 l 0.40122,-0.66146 -0.65724,0.66146 c -0.36148,0.3638 -3.55145,3.75709 -7.08881,7.54063 -3.53737,3.78353 -7.92892,8.47376 -9.759,10.42271 -1.83008,1.94895 -3.47028,3.7465 -3.64489,3.99455 -0.29036,0.41248 -0.0192,0.49031 3.175,0.91114 4.16679,0.54897 4.33032,0.58804 4.33032,1.03447 0,0.23272 -1.84694,0.80626 -5.5783,1.73226 -3.06806,0.7614 -5.889964,1.50399 -6.270874,1.65022 -0.55618,0.21351 -1.11048,1.13519 -2.81456,4.68005 -1.16709,2.4278 -2.09205,4.44756 -2.05547,4.48836 0.0366,0.0408 1.12455,-0.46855 2.41769,-1.1319 2.42276,-1.24282 7.414314,-2.96317 7.717584,-2.65989 0.0941,0.0941 0.0276,0.37376 -0.1479,0.62144 -0.77383,1.09238 -1.59632,2.91601 -1.75442,3.88992 -0.2503,1.5418 0.46841,3.97316 1.57291,5.32105 1.24858,1.52374 1.1964,1.76125 -0.34065,1.55055 -4.204254,-0.57631 -9.733334,-2.13898 -14.596924,-4.1255 l -2.52422,-1.031 1.71447,1.74245 c 2.35614,2.3946 5.23165,4.52169 8.1508,6.02938 1.35177,0.69816 2.42112,1.37695 2.37634,1.50842 -0.0448,0.13148 -1.19502,1.55864 -2.5561,3.17146 -1.36108,1.61283 -2.41772,2.9894 -2.34808,3.05904 0.0696,0.0696 2.25279,0.78038 4.85145,1.57943 2.59865,0.79904 4.830784,1.55876 4.960274,1.68826 0.13754,0.13754 -1.11216,2.80197 -3.005274,6.40741 -1.78239,3.39458 -3.89312,7.42212 -4.6905,8.95009 l -1.44978,2.77813 1.66774,-1.71979 c 0.91725,-0.94589 2.5755,-2.6723 3.68499,-3.83646 z"
       id="path847"
       inkscape:export-xdpi="200"
       inkscape:export-ydpi="200" />
  </g>
</svg>
